# xmcd CD database file
#
# Track frame offsets:
#	150
#	14499
#	27679
#	40162
#	53370
#	66912
#	79785
#	92232
#	106779
#	119121
#	131659
#	142972
#	154787
#	167267
#	181512
#	195270
#	207370
#	219820
#	232588
#	246600
#
# Disc length: 3461 seconds
#
# Revision: 0
# Processed by: cddbd v1.5.2PL0 Copyright (c) Steve Scherf et al.
# Submitted via: CDex 1.70beta2
#
DISCID=050d8314
DTITLE=Memphis Slim - 20 Légendes du Blues CD 17
DYEAR=2008
DGENRE=Blues
TTITLE0=Grinder Man Blues
TTITLE1=Empty Room Blues
TTITLE2=Old Taylor
TTITLE3=Jasper's Gal
TTITLE4=You Got To Help Me Some
TTITLE5=Maybe I'll Loan You A Dime
TTITLE6=Whiskey And Gin Blues
TTITLE7=Send Me Your Love
TTITLE8=Don't Ration My Love
TTITLE9=Pacemaker Boogie
TTITLE10=Nobody Loves Me (Everyday I Have The Blues)
TTITLE11=Blue And Lonesome
TTITLE12=Living The Life I Love
TTITLE13=Call Before You Go Home
TTITLE14=Back Alley
TTITLE15=This Is My Lucky Day
TTITLE16=The Colme Back
TTITLE17=Nat Dee Special
TTITLE18=I Love My Baby
TTITLE19=Five O'Clock Blues
EXTD=YEAR: 2008
EXTT0=
EXTT1=
EXTT2=
EXTT3=
EXTT4=
EXTT5=
EXTT6=
EXTT7=
EXTT8=
EXTT9=
EXTT10=
EXTT11=
EXTT12=
EXTT13=
EXTT14=
EXTT15=
EXTT16=
EXTT17=
EXTT18=
EXTT19=
PLAYORDER=
